<?xml version="1.0" encoding="UTF-8"?>
<svg width="22px" height="22px" viewBox="0 0 22 22" version="1.1" xmlns="http://www.w3.org/2000/svg" xmlns:xlink="http://www.w3.org/1999/xlink">
    <!-- Generator: Sketch 48.1 (47250) - http://www.bohemiancoding.com/sketch -->
    <title>Group 2 Copy</title>
    <desc>Created with Sketch.</desc>
    <defs></defs>
    <g id="tooltip" stroke="none" stroke-width="1" fill="none" fill-rule="evenodd">
        <g fill="#9E9E9E" fill-rule="nonzero" id="Combined-Shape">
            <path d="M11.2901786,17.3897059 C7.81620887,17.3897059 5,14.6161757 5,11.1948529 C5,7.77353013 7.81620887,5 11.2901786,5 C14.7641483,5 17.5803571,7.77353013 17.5803571,11.1948529 C17.5803571,14.6161757 14.7641483,17.3897059 11.2901786,17.3897059 Z M11.2901786,16.7647059 C14.4136587,16.7647059 16.9457397,14.2709978 16.9457397,11.1948529 C16.9457397,8.1187081 14.4136587,5.625 11.2901786,5.625 C8.1666984,5.625 5.63461742,8.1187081 5.63461742,11.1948529 C5.63461742,14.2709978 8.1666984,16.7647059 11.2901786,16.7647059 Z M12.861182,7.79109071 C13.2921793,8.15896099 13.5076748,8.66477502 13.5076748,9.308548 C13.5076748,9.82498127 13.3711943,10.2565149 13.0982293,10.6031619 C13.0048466,10.7163528 12.703153,10.9922513 12.1931395,11.4308659 C11.9920074,11.5935777 11.8411606,11.7775101 11.7405946,11.9826685 C11.6256619,12.187827 11.5681965,12.4212796 11.5681965,12.6830334 L11.5681965,12.8634305 L10.4152844,12.8634305 L10.4152844,12.6830334 C10.4152844,12.2727166 10.4871162,11.9366863 10.630782,11.6749325 C10.7672645,11.3919553 11.1731142,10.9533473 11.8483434,10.3590954 L12.0315163,10.1574752 C12.2326484,9.90279574 12.3332129,9.64458298 12.3332129,9.38282913 C12.3332129,9.02203328 12.2290568,8.73198607 12.0207414,8.51267879 C11.8052428,8.30044594 11.4999576,8.19433111 11.1048767,8.19433111 C10.616413,8.19433111 10.2644372,8.34642904 10.0489385,8.65062946 C9.85498971,8.90530888 9.75801677,9.26609931 9.75801677,9.73301158 L8.62665445,9.73301158 C8.62665445,8.96189889 8.85292465,8.35350718 9.30547184,7.9078182 C9.75801903,7.45505478 10.3829558,7.22867647 11.1803008,7.22867647 C11.8770798,7.22867647 12.437368,7.41614601 12.861182,7.79109071 Z M11.5574216,13.6486881 C11.7082707,13.7831022 11.7836941,13.9634974 11.7836941,14.1898792 C11.7836941,14.402112 11.7046791,14.5860444 11.5466467,14.7416818 C11.3886144,14.8831704 11.2018517,14.9539136 10.986353,14.9539136 C10.7636711,14.9539136 10.5769083,14.8796332 10.4260593,14.7310702 C10.2752102,14.5825072 10.1997868,14.402112 10.1997868,14.1898792 C10.1997868,13.9634974 10.2752102,13.7831022 10.4260593,13.6486881 C10.5697251,13.5071995 10.7564878,13.4364563 10.986353,13.4364563 C11.2234015,13.4364563 11.4137558,13.5071995 11.5574216,13.6486881 Z"></path>
        </g>
    </g>
</svg>